# xmcd CD database file
#
# Track frame offsets:
#	150
#	13109
#	26155
#	38311
#	51283
#	64877
#	77018
#	89042
#	112681
#	127914
#	142613
#	157545
#	171034
#	188020
#	199451
#	212188
#	224110
#	236451
#
# Disc length: 3355 seconds
#
# Revision: 0
# Processed by: cddbd v1.5.1PL0 Copyright (c) Steve Scherf et al.
# Submitted via: CDex 1.50beta9
#
DISCID=ee0d1912
DTITLE=James Moody - Just Moody - CD 2
DYEAR=1900
DGENRE=Jazz
TTITLE0=Omdoama
TTITLE1=Good Bait
TTITLE2=Dexterious
TTITLE3=Over the Rainbow
TTITLE4=Blue and Moody
TTITLE5=Be bop Tune No 1
TTITLE6=Michale by Accident
TTITLE7=Period Suite - Parta 1&2
TTITLE8=Perdido Part 1
TTITLE9=Perdido - Part 2
TTITLE10=Big and Little "E"
TTITLE11=Thats it
TTITLE12=Embraceable you
TTITLE13=A Date with Kate
TTITLE14=Mean to me
TTITLE15=Delooney
TTITLE16=Nath - Part 1
TTITLE17=I can't get Started
EXTD=
EXTT0=
EXTT1=
EXTT2=
EXTT3=
EXTT4=
EXTT5=
EXTT6=
EXTT7=
EXTT8=
EXTT9=
EXTT10=
EXTT11=
EXTT12=
EXTT13=
EXTT14=
EXTT15=
EXTT16=
EXTT17=
PLAYORDER=
